<svg width="24" height="24" viewBox="0 0 24 24" fill="none" xmlns="http://www.w3.org/2000/svg">
<path d="M9.57141 18.8211C9.38141 18.8211 9.19141 18.7511 9.04141 18.6011L2.97141 12.5311C2.68141 12.2411 2.68141 11.7611 2.97141 11.4711L9.04141 5.40109C9.33141 5.11109 9.81141 5.11109 10.1014 5.40109C10.3914 5.69109 10.3914 6.17109 10.1014 6.46109L4.56141 12.0011L10.1014 17.5411C10.3914 17.8311 10.3914 18.3111 10.1014 18.6011C9.96141 18.7511 9.76141 18.8211 9.57141 18.8211Z" fill="black"/>
<path d="M20.501 12.751H3.67098C3.26098 12.751 2.92098 12.411 2.92098 12.001C2.92098 11.591 3.26098 11.251 3.67098 11.251H20.501C20.911 11.251 21.251 11.591 21.251 12.001C21.251 12.411 20.911 12.751 20.501 12.751Z" fill="black"/>
</svg>
