<svg width="16" height="16" viewBox="0 0 16 16" fill="none" xmlns="http://www.w3.org/2000/svg">
<path d="M13.1938 2.81484C11.2204 0.848177 8.02042 0.848177 6.06042 2.81484C4.68042 4.18151 4.26709 6.14818 4.80042 7.88151L1.66709 11.0148C1.44709 11.2415 1.29376 11.6882 1.34042 12.0082L1.54042 13.4615C1.61376 13.9415 2.06042 14.3948 2.54042 14.4615L3.99376 14.6615C4.31376 14.7082 4.76042 14.5615 4.98709 14.3282L5.53376 13.7815C5.66709 13.6548 5.66709 13.4415 5.53376 13.3082L4.24042 12.0148C4.04709 11.8215 4.04709 11.5015 4.24042 11.3082C4.43376 11.1148 4.75376 11.1148 4.94709 11.3082L6.24709 12.6082C6.37376 12.7348 6.58709 12.7348 6.71376 12.6082L8.12709 11.2015C9.85376 11.7415 11.8204 11.3215 13.1938 9.95484C15.1604 7.98818 15.1604 4.78151 13.1938 2.81484ZM9.66709 8.00151C8.74709 8.00151 8.00042 7.25484 8.00042 6.33484C8.00042 5.41484 8.74709 4.66818 9.66709 4.66818C10.5871 4.66818 11.3338 5.41484 11.3338 6.33484C11.3338 7.25484 10.5871 8.00151 9.66709 8.00151Z" fill="black"/>
</svg>
