<svg width="48" height="44" viewBox="0 0 48 44" fill="none" xmlns="http://www.w3.org/2000/svg">
<path d="M24.6402 39.9858C34.9477 39.9858 43.321 36.0664 43.321 31.2053C43.321 28.4058 41.7939 20.9805 40.9286 17.1057C39.2043 9.26684 32.8098 3.99219 24.6847 3.99219C16.5596 3.99219 10.1269 9.2732 8.39628 17.1057C7.53095 20.9869 6.00391 28.4058 6.00391 31.2117C6.00391 36.0791 14.3772 39.9922 24.6847 39.9922H24.6465L24.6402 39.9858Z" fill="#2050FA"/>
<path d="M34.2733 25.2807C34.1397 25.2044 33.9997 25.1217 33.8342 25.0453C34.9223 24.4027 35.5458 23.6328 35.5458 22.8056C35.5458 21.3422 33.2107 16.1058 31.8618 14.2224C30.3157 11.9128 27.6815 10.3984 24.6911 10.3984C21.7006 10.3984 19.0665 11.9191 17.5204 14.2224C16.1651 16.0994 13.8364 21.3422 13.8364 22.8056C13.8364 23.6264 14.4663 24.3963 15.5479 25.0453C15.3889 25.128 15.2425 25.2044 15.1089 25.2807C13.6391 26.127 11.5013 27.6604 12.6974 29.7282C13.8873 31.7961 16.2924 30.7081 17.7558 29.8618C17.9657 29.741 18.2075 29.5883 18.4684 29.4101C18.0166 30.9562 18.1694 32.5469 19.7918 33.3041C21.8088 34.2457 23.3422 32.6296 24.1948 30.7972C24.3857 30.3899 24.5575 29.9191 24.6911 29.4165C24.8247 29.9128 24.9965 30.3899 25.1874 30.7972C26.04 32.6296 27.5797 34.2394 29.5903 33.3041C31.2192 32.5469 31.3719 30.9626 30.9138 29.4101C31.1683 29.5883 31.4101 29.741 31.6264 29.8618C33.0962 30.7081 35.4949 31.7961 36.6847 29.7282C37.8745 27.6604 35.7367 26.127 34.2733 25.2807ZM21.0644 20.3115C20.4472 20.3115 19.9445 19.408 19.9445 18.2881C19.9445 17.1683 20.4472 16.2648 21.0644 16.2648C21.6815 16.2648 22.1842 17.1683 22.1842 18.2881C22.1842 19.408 21.6815 20.3115 21.0644 20.3115ZM28.3115 20.3115C27.6943 20.3115 27.1916 19.408 27.1916 18.2881C27.1916 17.1683 27.6943 16.2648 28.3115 16.2648C28.9286 16.2648 29.4313 17.1683 29.4313 18.2881C29.4313 19.408 28.9286 20.3115 28.3115 20.3115Z" fill="white"/>
</svg>
